<?xml version="1.0" ?><!DOCTYPE svg  PUBLIC '-//W3C//DTD SVG 1.1//EN'  'http://www.w3.org/Graphics/SVG/1.1/DTD/svg11.dtd'><svg enable-background="new 0 0 24 24" height="24px" id="Layer_1" version="1.1" viewBox="0 0 24 24" width="24px" xml:space="preserve" xmlns="http://www.w3.org/2000/svg" xmlns:xlink="http://www.w3.org/1999/xlink"><g><g><path d="M21.9,22.2c-0.1,0-0.2,0-0.2-0.1l-2.9-1.5c-1,0.4-2.1,0.5-3.2,0.5c-4.4,0-8-2.9-8-6.4c0-3.5,3.6-6.4,8-6.4    c4.4,0,8,2.9,8,6.4c0,1.7-0.9,3.3-2.4,4.5l1.1,2.1c0.1,0.2,0.1,0.4-0.1,0.6C22.2,22.2,22.1,22.2,21.9,22.2z M18.9,19.6    c0.1,0,0.2,0,0.2,0.1l1.7,0.9l-0.6-1.1c-0.1-0.2,0-0.5,0.2-0.6c1.5-1,2.3-2.5,2.3-4c0-3-3.2-5.4-7-5.4c-3.9,0-7,2.4-7,5.4    c0,3,3.1,5.4,7,5.4c1.1,0,2.1-0.2,3.1-0.5C18.7,19.6,18.8,19.6,18.9,19.6z"/></g><g><path d="M2.4,19C2.3,19,2.1,19,2,18.9c-0.2-0.2-0.2-0.4-0.1-0.6l1.4-2.8c-1.9-1.5-3-3.6-3-5.7c0-4.4,4.5-8,10-8c5.5,0,10,3.6,10,8    c0,0,0,0.1,0,0.1c0,0.2-0.1,0.3-0.2,0.4c-0.2,0.1-0.3,0.1-0.5,0c-1.2-0.6-2.6-1-4-1c-3.9,0-7,2.4-7,5.4c0,0.7,0.2,1.4,0.5,2.1    c0.1,0.2,0.1,0.4,0,0.5c-0.1,0.2-0.3,0.2-0.5,0.2c-0.8-0.1-1.6-0.3-2.3-0.5L2.6,19C2.5,19,2.5,19,2.4,19z M10.4,2.8    c-5,0-9,3.1-9,7c0,2,1.1,3.8,3,5.2c0.2,0.1,0.3,0.4,0.2,0.6l-0.9,1.8L6,16.1C6.2,16,6.3,16,6.4,16c0.5,0.2,1,0.3,1.4,0.4    c-0.2-0.5-0.3-1.1-0.3-1.6c0-3.5,3.6-6.4,8-6.4c1.3,0,2.5,0.2,3.7,0.7C18.9,5.6,15,2.8,10.4,2.8z"/></g><g><g><path d="M7.2,7.9c-0.5,0-0.8-0.4-0.8-0.8c0-0.5,0.4-0.8,0.8-0.8C7.6,6.3,8,6.6,8,7.1C8,7.5,7.6,7.9,7.2,7.9z M7.2,6.9     C7.1,6.9,7,7,7,7.1c0,0.1,0.1,0.2,0.2,0.2c0.1,0,0.2-0.1,0.2-0.2C7.3,7,7.3,6.9,7.2,6.9z"/></g><g><path d="M13.5,7.9c-0.5,0-0.8-0.4-0.8-0.8c0-0.5,0.4-0.8,0.8-0.8c0.5,0,0.8,0.4,0.8,0.8C14.3,7.5,14,7.9,13.5,7.9z M13.5,6.9     c-0.1,0-0.2,0.1-0.2,0.2s0.1,0.2,0.2,0.2c0.1,0,0.2-0.1,0.2-0.2C13.7,7,13.6,6.9,13.5,6.9z"/></g></g><g><g><path d="M13.1,14.6c-0.5,0-0.8-0.4-0.8-0.8c0-0.5,0.4-0.8,0.8-0.8s0.8,0.4,0.8,0.8C14,14.2,13.6,14.6,13.1,14.6z M13.1,13.6     c-0.1,0-0.2,0.1-0.2,0.2c0,0.2,0.4,0.2,0.4,0C13.3,13.6,13.2,13.6,13.1,13.6z"/></g><g><path d="M18.1,14.6c-0.5,0-0.8-0.4-0.8-0.8c0-0.5,0.4-0.8,0.8-0.8c0.5,0,0.8,0.4,0.8,0.8C18.9,14.2,18.6,14.6,18.1,14.6z      M18.1,13.6c-0.1,0-0.2,0.1-0.2,0.2c0,0.1,0.1,0.2,0.2,0.2c0.1,0,0.2-0.1,0.2-0.2S18.2,13.6,18.1,13.6z"/></g></g></g></svg>